<svg width="28" height="27" viewBox="0 0 28 27" fill="none" xmlns="http://www.w3.org/2000/svg">
<path id="Vector" fill="#7B7A7A" d="M24.6556 19.4885L2.78075 13.9053C1.14473 13.4878 0 12.0142 0 10.3257V7.1122C0 6.22591 0.857099 5.59214 1.70449 5.85185V5.85185C2.10044 5.9732 2.41636 6.27357 2.55751 6.6629L2.86292 7.50529C3.21297 8.47084 4.01659 9.2017 5.01093 9.45882L5.58593 9.60751C8.27093 10.3018 10.8889 8.27471 10.8889 5.50139V1.82084C10.8889 0.688735 11.9415 -0.149402 13.0449 0.104203V0.104203C13.6388 0.240711 14.1199 0.674488 14.317 1.2511L16.1719 6.67754C17.4863 10.5226 20.6475 13.4481 24.5827 14.4612L26.0556 14.8403C26.6519 14.9834 27.125 15.2754 27.475 15.7163C27.825 16.1573 28 16.6519 28 17.2002C28 17.9868 27.65 18.6185 26.95 19.0952C26.25 19.5719 25.4852 19.703 24.6556 19.4885ZM1.43021 26.7826C0.640325 26.7826 0 26.1422 0 25.3524V25.3524C0 24.5625 0.640325 23.9221 1.43021 23.9221H26.5698C27.3597 23.9221 28 24.5625 28 25.3524V25.3524C28 26.1422 27.3597 26.7826 26.5698 26.7826H1.43021Z" fill="#7B7A7A"/>
</svg>
